#!OML:ASF I:\Actors\actors\Patient Classification 2\Patient 1\Session 1\actor1.ASF
:FULLY-SPECIFIED
:DEGREES
736
root -0.556004 18.7021 5.95011 3.15976 -2.20874 -1.67247
lowerback 1.65195 2.77752 -2.74704
upperback -1.84545 3.65367 1.02549
thorax -3.06362 1.89535 2.42813
lowerneck -14.0753 -1.24155 -1.36543
upperneck 36.5227 -1.52913 0.410138
head 15.0985 -0.758296 0.165644
rclavicle 2.52381e-014 3.8266e-015
rhumerus -33.5759 46.6829 -94.3968
rradius 103.69
rwrist 1.5087
rhand -23.4017 -48.2394
rfingers 7.12502
rthumb 3.0552 -438.197
lclavicle 2.52381e-014 3.8266e-015
lhumerus -41.5094 -29.3475 98.749
lradius 109.49
lwrist 33.2416
lhand -12.923 -22.1195
lfingers 7.12502
lthumb 13.1675 7.44472
rfemur 0 0 0
rtibia 0
rfoot 0 0
rtoes 0
lfemur -4.77171 -7.54581 -13.1475
ltibia 21.6333
lfoot -24.4048 15.35
ltoes -53.9523
737
root -0.556953 18.7025 5.95149 3.17911 -2.21055 -1.6606
lowerback 1.63653 2.76327 -2.79865
upperback -1.84994 3.63327 1.01817
thorax -3.06112 1.88626 2.45105
lowerneck -14.0843 -1.24543 -1.32497
upperneck 36.5138 -1.53464 0.374177
head 15.0955 -0.760301 0.142325
rclavicle 5.87541e-015 8.00108e-015
rhumerus -33.5956 46.7038 -94.5103
rradius 103.862
rwrist 0.279622
rhand -23.0246 -48.7108
rfingers 7.12502
rthumb 3.41939 -438.663
lclavicle 5.87541e-015 8.00108e-015
lhumerus -41.5546 -29.3513 98.732
lradius 109.509
lwrist 33.2604
lhand -13.0167 -22.2154
lfingers 7.12502
lthumb 13.0771 7.35461
rfemur 0 0 0
rtibia 0
rfoot 0 0
rtoes 0
lfemur -4.7871 -7.54388 -13.1568
ltibia 21.6304
lfoot -24.4017 15.3612
ltoes -53.9951
738
root -0.557178 18.7032 5.95235 3.18725 -2.2168 -1.65046
lowerback 1.6235 2.74919 -2.83403
upperback -1.84062 3.6133 1.0007
thorax -3.04396 1.87649 2.45477
lowerneck -14.1001 -1.23867 -1.27376
upperneck 36.493 -1.53394 0.355738
head 15.0883 -0.755755 0.125465
rclavicle 3.00596e-014 2.5842e-015
rhumerus -33.5061 46.7006 -94.5145
rradius 104.051
rwrist -1.54873
rhand -22.2851 -49.3883
rfingers 7.12502
rthumb 4.13344 -439.328
lclavicle 3.00596e-014 2.5842e-015
lhumerus -41.5591 -29.3231 98.6724
lradius 109.518
lwrist 33.2648
lhand -12.9743 -22.4588
lfingers 7.12502
lthumb 13.118 7.10865
rfemur 0 0 0
rtibia 0
rfoot 0 0
rtoes 0
lfemur -4.78221 -7.55121 -13.1675
ltibia 21.6159
lfoot -24.4132 15.3615
ltoes -54.0124
739
root -0.556478 18.7029 5.95275 3.18769 -2.22568 -1.63989
lowerback 1.6184 2.74751 -2.86683
upperback -1.8313 3.61006 0.993028
thorax -3.03285 1.87522 2.46587
lowerneck -14.1176 -1.23179 -1.23109
upperneck 36.4887 -1.52709 0.329818
head 15.0895 -0.750574 0.108034
rclavicle -3.08326e-014 -1.28216e-014
rhumerus -33.3542 46.6417 -94.3817
rradius 104.2
rwrist -3.44667
rhand -21.4172 -50.0632
rfingers 7.12502
rthumb 4.97152 -439.985
lclavicle -3.08326e-014 -1.28216e-014
lhumerus -41.5674 -29.2825 98.6509
lradius 109.575
lwrist 33.2708
lhand -12.8136 -22.5541
lfingers 7.12502
lthumb 13.2729 7.00327
rfemur 0 0 0
rtibia 0
rfoot 0 0
rtoes 0
lfemur -4.77215 -7.51214 -13.1771
ltibia 21.5943
lfoot -24.3918 15.3399
ltoes -54.0175
740
root -0.555331 18.7019 5.95324 3.20316 -2.23473 -1.60517
lowerback 1.60001 2.75272 -2.90237
upperback -1.83045 3.61566 0.963356
thorax -3.02232 1.87825 2.45584
lowerneck -14.1269 -1.24133 -1.19614
upperneck 36.4866 -1.55271 0.33033
head 15.0905 -0.756579 0.0976836
rclavicle 1.03644e-014 3.57812e-015
rhumerus -33.0857 46.5699 -94.0958
rradius 104.325
rwrist -5.05762
rhand -20.7946 -50.4939
rfingers 7.12502
rthumb 5.57263 -440.401
lclavicle 1.03644e-014 3.57812e-015
lhumerus -41.5515 -29.2635 98.6198
lradius 109.641
lwrist 33.297
lhand -12.6707 -22.5023
lfingers 7.12502
lthumb 13.4106 7.04606
rfemur 0 0 0
rtibia 0
rfoot 0 0
rtoes 0
lfemur -4.78411 -7.49871 -13.2159
ltibia 21.5737
lfoot -24.3728 15.3547
ltoes -54.0391
741
root -0.554644 18.7016 5.95437 3.20655 -2.23206 -1.59306
lowerback 1.57772 2.74732 -2.91512
upperback -1.81767 3.60802 0.937235
thorax -2.99512 1.87383 2.438
lowerneck -14.1598 -1.2613 -1.20236
upperneck 36.4799 -1.59893 0.37729
head 15.0961 -0.770687 0.110461
rclavicle -3.05888e-014 1.02374e-014
rhumerus -32.6949 46.5386 -93.6348
rradius 104.474
rwrist -6.51493
rhand -20.248 -50.807
rfingers 7.12502
rthumb 6.10041 -440.699
lclavicle -3.05888e-014 1.02374e-014
lhumerus -41.4878 -29.2476 98.578
lradius 109.653
lwrist 33.3036
lhand -12.6233 -22.5693
lfingers 7.12502
lthumb 13.4563 6.97606
rfemur 0 0 0
rtibia 0
rfoot 0 0
rtoes 0
lfemur -4.77918 -7.51946 -13.2299
ltibia 21.558
lfoot -24.3848 15.3534
ltoes -53.991
742
root -0.554177 18.702 5.95627 3.19178 -2.23699 -1.57784
lowerback 1.55777 2.74832 -2.95909
upperback -1.80438 3.60876 0.938259
thorax -2.97312 1.87469 2.46494
lowerneck -14.1881 -1.29146 -1.28639
upperneck 36.4892 -1.64826 0.456678
head 15.1098 -0.792271 0.150151
rclavicle 8.69994e-015 6.85807e-015
rhumerus -32.3974 46.5223 -93.1038
rradius 104.707
rwrist -7.95182
rhand -19.7371 -51.1454
rfingers 7.12502
rthumb 6.59361 -441.023
lclavicle 8.69994e-015 6.85807e-015
lhumerus -41.447 -29.2392 98.6079
lradius 109.64
lwrist 33.3192
lhand -12.6556 -22.7625
lfingers 7.12502
lthumb 13.4252 6.78488
rfemur 0 0 0
rtibia 0
rfoot 0 0
rtoes 0
lfemur -4.74428 -7.50602 -13.2518
ltibia 21.5517
lfoot -24.3915 15.3408
ltoes -53.9602
743
root -0.553203 18.7028 5.95785 3.18345 -2.27807 -1.54789
lowerback 1.54712 2.7703 -3.01655
upperback -1.81328 3.63665 0.934891
thorax -2.98174 1.89005 2.49238
lowerneck -14.1585 -1.32202 -1.35562
upperneck 36.4941 -1.69597 0.517265
head 15.1075 -0.813767 0.18006
rclavicle 2.82496e-014 -3.97569e-015
rhumerus -32.1171 46.497 -92.531
rradius 104.958
rwrist -9.0762
rhand -19.4996 -51.2523
rfingers 7.12502
rthumb 6.8229 -441.122
lclavicle 2.82496e-014 -3.97569e-015
lhumerus -41.4743 -29.2601 98.6655
lradius 109.657
lwrist 33.3601
lhand -12.7069 -22.9119
lfingers 7.12502
lthumb 13.3757 6.63877
rfemur 0 0 0
rtibia 0
rfoot 0 0
rtoes 0
lfemur -4.71293 -7.51018 -13.3008
ltibia 21.5577
lfoot -24.4328 15.3564
ltoes -53.9473
744
root -0.552036 18.7029 5.9591 3.17654 -2.31021 -1.55982
lowerback 1.52584 2.78557 -3.03031
upperback -1.81185 3.65759 0.946528
thorax -2.97141 1.9008 2.51211
lowerneck -14.1 -1.33361 -1.31459
upperneck 36.4648 -1.70456 0.45834
head 15.0784 -0.820147 0.147088
rclavicle 1.31582e-014 -1.59028e-015
rhumerus -31.6265 46.5201 -91.7994
rradius 105.084
rwrist -9.21503
rhand -19.7534 -50.9598
rfingers 7.12502
rthumb 6.57784 -440.838
lclavicle 1.31582e-014 -1.59028e-015
lhumerus -41.5129 -29.2811 98.7056
lradius 109.705
lwrist 33.369
lhand -12.7785 -23.0325
lfingers 7.12502
lthumb 13.3067 6.52264
rfemur 0 0 0
rtibia 0
rfoot 0 0
rtoes 0
lfemur -4.69525 -7.53747 -13.3035
ltibia 21.5694
lfoot -24.4746 15.386
ltoes -53.9281
745
root -0.550853 18.7023 5.96116 3.16736 -2.29868 -1.58027
lowerback 1.48809 2.78807 -3.02939
upperback -1.79777 3.66267 0.966305
thorax -2.93722 1.90293 2.53408
lowerneck -14.063 -1.33677 -1.2473
upperneck 36.4441 -1.69402 0.361919
head 15.0575 -0.819794 0.0968519
rclavicle 1.79372e-015 -7.85199e-015
rhumerus -30.9953 46.5853 -90.9225
rradius 105.04
rwrist -7.93653
rhand -20.2946 -50.3589
rfingers 7.12502
rthumb 6.0554 -440.252
lclavicle 1.79372e-015 -7.85199e-015
lhumerus -41.5214 -29.2987 98.7539
lradius 109.724
lwrist 33.3402
lhand -12.8232 -23.1631
lfingers 7.12502
lthumb 13.2636 6.39489
rfemur 0 0 0
rtibia 0
rfoot 0 0
rtoes 0
lfemur -4.6837 -7.56731 -13.2904
ltibia 21.5786
lfoot -24.4875 15.4124
ltoes -53.9034
746
root -0.549719 18.702 5.96382 3.15412 -2.26371 -1.59543
lowerback 1.45974 2.78918 -2.99397
upperback -1.78734 3.66576 0.957362
thorax -2.90774 1.90306 2.50679
lowerneck -14.085 -1.34915 -1.27818
upperneck 36.4531 -1.70936 0.38057
head 15.0679 -0.827806 0.107416
rclavicle 1.27925e-014 -8.94531e-015
rhumerus -30.3535 46.6628 -90.014
rradius 104.894
rwrist -5.68736
rhand -20.9012 -49.579
rfingers 7.12502
rthumb 5.46978 -439.488
lclavicle 1.27925e-014 -8.94531e-015
lhumerus -41.5094 -29.3405 98.7832
lradius 109.729
lwrist 33.3362
lhand -12.798 -23.254
lfingers 7.12502
lthumb 13.2879 6.30237
rfemur 0 0 0
rtibia 0
rfoot 0 0
rtoes 0
lfemur -4.66545 -7.61244 -13.2796
ltibia 21.5813
lfoot -24.504 15.4162
ltoes -53.8835
747
root -0.548769 18.7019 5.96585 3.14418 -2.22835 -1.61233
lowerback 1.45543 2.78777 -2.94828
upperback -1.79226 3.66472 0.939365
thorax -2.90609 1.90139 2.46295
lowerneck -14.1125 -1.36243 -1.32854
upperneck 36.4492 -1.72393 0.409987
head 15.0737 -0.836801 0.126033
rclavicle -3.05332e-014 -1.26228e-014
rhumerus -29.8821 46.8003 -89.2299
rradius 104.827
rwrist -3.2866
rhand -21.4866 -48.8895
rfingers 7.12502
rthumb 4.90449 -438.813
lclavicle -3.05332e-014 -1.26228e-014
lhumerus -41.5135 -29.3933 98.7977
lradius 109.731
lwrist 33.3513
lhand -12.796 -23.3447
lfingers 7.12502
lthumb 13.2898 6.21156
rfemur 0 0 0
rtibia 0
rfoot 0 0
rtoes 0
lfemur -4.65183 -7.63662 -13.263
ltibia 21.5775
lfoot -24.5051 15.407
ltoes -53.905
748
root -0.54825 18.7023 5.9671 3.15629 -2.19844 -1.59218
lowerback 1.46049 2.7811 -2.9518
upperback -1.82943 3.65452 0.907501
thorax -2.94474 1.89699 2.43124
lowerneck -14.0647 -1.37556 -1.26075
upperneck 36.431 -1.74404 0.35304
head 15.0523 -0.844165 0.0871764
rclavicle -1.09056e-014 -3.08116e-015
rhumerus -29.5494 47.0438 -88.6073
rradius 104.84
rwrist -1.09953
rhand -21.9796 -48.3111
rfingers 7.12502
rthumb 4.42851 -438.245
lclavicle -1.09056e-014 -3.08116e-015
lhumerus -41.5718 -29.467 98.7935
lradius 109.725
lwrist 33.3731
lhand -12.8373 -23.3851
lfingers 7.12502
lthumb 13.25 6.17376
rfemur 0 0 0
rtibia 0
rfoot 0 0
rtoes 0
lfemur -4.6689 -7.64873 -13.2826
ltibia 21.5746
lfoot -24.4946 15.4027
ltoes -53.9052
749
root -0.548564 18.7025 5.96808 3.18251 -2.17519 -1.57518
lowerback 1.41463 2.75988 -2.93436
upperback -1.84932 3.62634 0.852368
thorax -2.93275 1.88197 2.36798
lowerneck -13.9884 -1.37937 -1.06005
upperneck 36.3913 -1.76788 0.230902
head 15.0111 -0.844208 -0.00283774
rclavicle -7.59913e-014 -1.18277e-014
rhumerus -29.15 47.4058 -88.0545
rradius 104.823
rwrist 0.744221
rhand -22.475 -47.6993
rfingers 7.12502
rthumb 3.95006 -437.642
lclavicle -7.59913e-014 -1.18277e-014
lhumerus -41.5916 -29.5396 98.6957
lradius 109.733
lwrist 33.4016
lhand -12.8947 -23.2544
lfingers 7.12502
lthumb 13.1947 6.30808
rfemur 0 0 0
rtibia 0
rfoot 0 0
rtoes 0
lfemur -4.70867 -7.6496 -13.2936
ltibia 21.5777
lfoot -24.4793 15.3903
ltoes -53.8945
750
root -0.549458 18.7026 5.96881 3.19692 -2.16449 -1.60658
lowerback 1.3286 2.73458 -2.86302
upperback -1.82472 3.59594 0.811176
thorax -2.84954 1.86337 2.29253
lowerneck -13.9626 -1.36439 -0.881321
upperneck 36.3386 -1.76477 0.132683
head 14.976 -0.832507 -0.0747116
rclavicle -2.25586e-014 3.97569e-016
rhumerus -28.8097 47.8912 -87.6349
rradius 104.836
rwrist 2.02656
rhand -22.9178 -47.2963
rfingers 7.12502
rthumb 3.52251 -437.247
lclavicle -2.25586e-014 3.97569e-016
lhumerus -41.484 -29.5644 98.5653
lradius 109.688
lwrist 33.3802
lhand -12.9607 -23.0771
lfingers 7.12502
lthumb 13.131 6.48949
rfemur 0 0 0
rtibia 0
rfoot 0 0
rtoes 0
lfemur -4.73193 -7.6364 -13.2504
ltibia 21.5837
lfoot -24.469 15.3668
ltoes -53.9153
751
root -0.550439 18.7027 5.96945 3.19117 -2.17475 -1.64952
lowerback 1.3001 2.72727 -2.79082
upperback -1.81286 3.58834 0.790375
thorax -2.81473 1.85722 2.23313
lowerneck -13.9758 -1.35521 -0.820544
upperneck 36.3306 -1.76596 0.121552
head 14.9742 -0.826387 -0.0904615
rclavicle 4.78885e-014 1.33186e-014
rhumerus -28.6617 48.4278 -87.4118
rradius 104.888
rwrist 2.72917
rhand -23.2056 -47.1607
rfingers 7.12502
rthumb 3.24455 -437.116
lclavicle 4.78885e-014 1.33186e-014
lhumerus -41.3618 -29.5734 98.5078
lradius 109.599
lwrist 33.366
lhand -12.9399 -22.9703
lfingers 7.12502
lthumb 13.1511 6.59492
rfemur 0 0 0
rtibia 0
rfoot 0 0
rtoes 0
lfemur -4.72442 -7.62268 -13.2005
ltibia 21.592
lfoot -24.4706 15.3668
ltoes -53.933
